# xmcd
#
# Track frame offsets: 
#        150
#        31010
#        75310
#        102010
#        127168
#        165753
#        197015
#        222683
#
# Disc length: 3731 seconds
#
# Revision: 1
# Processed by: cddbd v1.5.2PL0 Copyright (c) Steve Scherf et al.
# Submitted via: ExactAudioCopy v0.95a4
#
DISCID=5d0e9108
DTITLE=Melvin Rhyne - The Legend
DYEAR=1991
DGENRE=Jazz
TTITLE0=Licks-A-Plenty
TTITLE1=Serenata
TTITLE2=Stompin' At The Savoy
TTITLE3=The Trick Bag
TTITLE4=Old Folks
TTITLE5=Next Time You See Me
TTITLE6=Groovin' High
TTITLE7=Blues For Wes
EXTD=YEAR: 0
EXTT0=
EXTT1=
EXTT2=
EXTT3=
EXTT4=
EXTT5=
EXTT6=
EXTT7=
PLAYORDER=
